<mxfile host="65bd71144e">
    <diagram id="t8QoFsj8MZgXzhcuyan1" name="Page-1">
        <mxGraphModel dx="1676" dy="1270" grid="1" gridSize="10" guides="1" tooltips="1" connect="1" arrows="1" fold="1" page="1" pageScale="1" pageWidth="827" pageHeight="1169" math="0" shadow="0">
            <root>
                <mxCell id="0"/>
                <mxCell id="1" parent="0"/>
                <mxCell id="93" value="" style="group" parent="1" vertex="1" connectable="0">
                    <mxGeometry x="40" y="69" width="610" height="270" as="geometry"/>
                </mxCell>
                <mxCell id="94" value="&lt;font face=&quot;Ubuntu mono&quot; color=&quot;#e01b24&quot;&gt;&lt;b&gt;8&lt;/b&gt;&lt;/font&gt; clip" style="rounded=1;html=1;fontFamily=Alegreya;fontSource=https%3A%2F%2Ffonts.googleapis.com%2Fcss%3Ffamily%3DAlegreya;whiteSpace=wrap;" parent="93" vertex="1">
                    <mxGeometry x="280" width="50" height="30" as="geometry"/>
                </mxCell>
                <mxCell id="95" value="&lt;font face=&quot;Ubuntu mono&quot; color=&quot;#e01b24&quot;&gt;&lt;b&gt;4&lt;/b&gt;&lt;/font&gt; car" style="rounded=1;html=1;fontFamily=Alegreya;fontSource=https%3A%2F%2Ffonts.googleapis.com%2Fcss%3Ffamily%3DAlegreya;whiteSpace=wrap;" parent="93" vertex="1">
                    <mxGeometry x="120" y="80" width="50" height="30" as="geometry"/>
                </mxCell>
                <mxCell id="96" value="&lt;font face=&quot;Ubuntu mono&quot; color=&quot;#e01b24&quot;&gt;&lt;b&gt;12&lt;/b&gt;&lt;/font&gt; crab" style="rounded=1;html=1;fontFamily=Alegreya;fontSource=https%3A%2F%2Ffonts.googleapis.com%2Fcss%3Ffamily%3DAlegreya;whiteSpace=wrap;" parent="93" vertex="1">
                    <mxGeometry x="440" y="80" width="50" height="30" as="geometry"/>
                </mxCell>
                <mxCell id="97" value="&lt;font color=&quot;#e01b24&quot; data-font-src=&quot;https://fonts.googleapis.com/css?family=Ubuntu+mono&quot; face=&quot;Ubuntu mono&quot;&gt;&lt;b&gt;2&lt;/b&gt;&lt;/font&gt;&amp;nbsp;call" style="rounded=1;html=1;fontFamily=Alegreya;fontSource=https%3A%2F%2Ffonts.googleapis.com%2Fcss%3Ffamily%3DAlegreya;whiteSpace=wrap;" parent="93" vertex="1">
                    <mxGeometry x="40" y="160" width="50" height="30" as="geometry"/>
                </mxCell>
                <mxCell id="98" value="&lt;font face=&quot;Ubuntu mono&quot; color=&quot;#e01b24&quot;&gt;&lt;b&gt;6&lt;/b&gt;&lt;/font&gt; cat" style="rounded=1;html=1;fontFamily=Alegreya;fontSource=https%3A%2F%2Ffonts.googleapis.com%2Fcss%3Ffamily%3DAlegreya;whiteSpace=wrap;" parent="93" vertex="1">
                    <mxGeometry x="200" y="160" width="50" height="30" as="geometry"/>
                </mxCell>
                <mxCell id="99" value="&lt;font face=&quot;Ubuntu mono&quot; color=&quot;#e01b24&quot;&gt;&lt;b&gt;1&lt;/b&gt;&lt;/font&gt; cake" style="rounded=1;html=1;fontFamily=Alegreya;fontSource=https%3A%2F%2Ffonts.googleapis.com%2Fcss%3Ffamily%3DAlegreya;whiteSpace=wrap;" parent="93" vertex="1">
                    <mxGeometry y="240" width="50" height="30" as="geometry"/>
                </mxCell>
                <mxCell id="100" value="&lt;font face=&quot;Ubuntu mono&quot; color=&quot;#e01b24&quot;&gt;&lt;b&gt;3&lt;/b&gt;&lt;/font&gt; can" style="rounded=1;html=1;fontFamily=Alegreya;fontSource=https%3A%2F%2Ffonts.googleapis.com%2Fcss%3Ffamily%3DAlegreya;whiteSpace=wrap;" parent="93" vertex="1">
                    <mxGeometry x="80" y="240" width="50" height="30" as="geometry"/>
                </mxCell>
                <mxCell id="101" value="&lt;font face=&quot;Ubuntu mono&quot; color=&quot;#e01b24&quot;&gt;&lt;b&gt;5&lt;/b&gt;&lt;/font&gt; care" style="rounded=1;html=1;fontFamily=Alegreya;fontSource=https%3A%2F%2Ffonts.googleapis.com%2Fcss%3Ffamily%3DAlegreya;whiteSpace=wrap;" parent="93" vertex="1">
                    <mxGeometry x="160" y="240" width="50" height="30" as="geometry"/>
                </mxCell>
                <mxCell id="102" value="&lt;font face=&quot;Ubuntu mono&quot; color=&quot;#e01b24&quot;&gt;&lt;b&gt;7&lt;/b&gt;&lt;/font&gt; cave" style="rounded=1;html=1;fontFamily=Alegreya;fontSource=https%3A%2F%2Ffonts.googleapis.com%2Fcss%3Ffamily%3DAlegreya;whiteSpace=wrap;" parent="93" vertex="1">
                    <mxGeometry x="240" y="240" width="50" height="30" as="geometry"/>
                </mxCell>
                <mxCell id="103" value="&lt;font face=&quot;Ubuntu mono&quot; color=&quot;#e01b24&quot;&gt;&lt;b&gt;10&lt;/b&gt;&lt;/font&gt; coin" style="rounded=1;html=1;fontFamily=Alegreya;fontSource=https%3A%2F%2Ffonts.googleapis.com%2Fcss%3Ffamily%3DAlegreya;whiteSpace=wrap;" parent="93" vertex="1">
                    <mxGeometry x="360" y="160" width="50" height="30" as="geometry"/>
                </mxCell>
                <mxCell id="104" value="&lt;font face=&quot;Ubuntu mono&quot; color=&quot;#e01b24&quot;&gt;&lt;b&gt;14&lt;/b&gt;&lt;/font&gt; cube" style="rounded=1;html=1;fontFamily=Alegreya;fontSource=https%3A%2F%2Ffonts.googleapis.com%2Fcss%3Ffamily%3DAlegreya;whiteSpace=wrap;" parent="93" vertex="1">
                    <mxGeometry x="520" y="160" width="50" height="30" as="geometry"/>
                </mxCell>
                <mxCell id="105" value="&lt;font face=&quot;Ubuntu mono&quot; color=&quot;#e01b24&quot;&gt;&lt;b&gt;9&lt;/b&gt;&lt;/font&gt; code" style="rounded=1;html=1;fontFamily=Alegreya;fontSource=https%3A%2F%2Ffonts.googleapis.com%2Fcss%3Ffamily%3DAlegreya;whiteSpace=wrap;" parent="93" vertex="1">
                    <mxGeometry x="320" y="240" width="50" height="30" as="geometry"/>
                </mxCell>
                <mxCell id="106" value="&lt;font face=&quot;Ubuntu mono&quot; color=&quot;#e01b24&quot;&gt;&lt;b&gt;11&lt;/b&gt;&lt;/font&gt; cook" style="rounded=1;html=1;fontFamily=Alegreya;fontSource=https%3A%2F%2Ffonts.googleapis.com%2Fcss%3Ffamily%3DAlegreya;whiteSpace=wrap;" parent="93" vertex="1">
                    <mxGeometry x="410" y="240" width="50" height="30" as="geometry"/>
                </mxCell>
                <mxCell id="107" value="&lt;font face=&quot;Ubuntu mono&quot; color=&quot;#e01b24&quot;&gt;&lt;b&gt;13&lt;/b&gt;&lt;/font&gt; crow" style="rounded=1;html=1;fontFamily=Alegreya;fontSource=https%3A%2F%2Ffonts.googleapis.com%2Fcss%3Ffamily%3DAlegreya;whiteSpace=wrap;" parent="93" vertex="1">
                    <mxGeometry x="480" y="240" width="50" height="30" as="geometry"/>
                </mxCell>
                <mxCell id="108" value="&lt;font face=&quot;Ubuntu mono&quot; color=&quot;#e01b24&quot;&gt;&lt;b&gt;15&lt;/b&gt;&lt;/font&gt; cup" style="rounded=1;html=1;fontFamily=Alegreya;fontSource=https%3A%2F%2Ffonts.googleapis.com%2Fcss%3Ffamily%3DAlegreya;whiteSpace=wrap;" parent="93" vertex="1">
                    <mxGeometry x="560" y="240" width="50" height="30" as="geometry"/>
                </mxCell>
                <mxCell id="109" value="" style="endArrow=blockThin;html=1;fontFamily=Alegreya;fontSource=https%3A%2F%2Ffonts.googleapis.com%2Fcss%3Ffamily%3DAlegreya;endFill=1;" parent="93" source="94" target="95" edge="1">
                    <mxGeometry width="50" height="50" relative="1" as="geometry">
                        <mxPoint x="100" y="110" as="sourcePoint"/>
                        <mxPoint x="150" y="60" as="targetPoint"/>
                    </mxGeometry>
                </mxCell>
                <mxCell id="110" value="" style="endArrow=blockThin;html=1;fontFamily=Alegreya;fontSource=https%3A%2F%2Ffonts.googleapis.com%2Fcss%3Ffamily%3DAlegreya;endFill=1;" parent="93" source="94" target="96" edge="1">
                    <mxGeometry width="50" height="50" relative="1" as="geometry">
                        <mxPoint x="410" y="70" as="sourcePoint"/>
                        <mxPoint x="320" y="125.38461538461547" as="targetPoint"/>
                    </mxGeometry>
                </mxCell>
                <mxCell id="111" value="" style="endArrow=blockThin;html=1;fontFamily=Alegreya;fontSource=https%3A%2F%2Ffonts.googleapis.com%2Fcss%3Ffamily%3DAlegreya;endFill=1;" parent="93" source="96" target="104" edge="1">
                    <mxGeometry width="50" height="50" relative="1" as="geometry">
                        <mxPoint x="540" y="160" as="sourcePoint"/>
                        <mxPoint x="450" y="215.38461538461547" as="targetPoint"/>
                    </mxGeometry>
                </mxCell>
                <mxCell id="112" value="" style="endArrow=blockThin;html=1;fontFamily=Alegreya;fontSource=https%3A%2F%2Ffonts.googleapis.com%2Fcss%3Ffamily%3DAlegreya;endFill=1;" parent="93" source="96" target="103" edge="1">
                    <mxGeometry width="50" height="50" relative="1" as="geometry">
                        <mxPoint x="370" y="150" as="sourcePoint"/>
                        <mxPoint x="280" y="205.38461538461547" as="targetPoint"/>
                    </mxGeometry>
                </mxCell>
                <mxCell id="113" value="" style="endArrow=blockThin;html=1;fontFamily=Alegreya;fontSource=https%3A%2F%2Ffonts.googleapis.com%2Fcss%3Ffamily%3DAlegreya;endFill=1;" parent="93" source="95" target="97" edge="1">
                    <mxGeometry width="50" height="50" relative="1" as="geometry">
                        <mxPoint x="210" y="150" as="sourcePoint"/>
                        <mxPoint x="120" y="205.38461538461547" as="targetPoint"/>
                    </mxGeometry>
                </mxCell>
                <mxCell id="114" value="" style="endArrow=blockThin;html=1;fontFamily=Alegreya;fontSource=https%3A%2F%2Ffonts.googleapis.com%2Fcss%3Ffamily%3DAlegreya;endFill=1;" parent="93" source="95" target="98" edge="1">
                    <mxGeometry width="50" height="50" relative="1" as="geometry">
                        <mxPoint x="210" y="140" as="sourcePoint"/>
                        <mxPoint x="120" y="195.38461538461547" as="targetPoint"/>
                    </mxGeometry>
                </mxCell>
                <mxCell id="115" value="" style="endArrow=blockThin;html=1;fontFamily=Alegreya;fontSource=https%3A%2F%2Ffonts.googleapis.com%2Fcss%3Ffamily%3DAlegreya;endFill=1;" parent="93" source="97" target="99" edge="1">
                    <mxGeometry width="50" height="50" relative="1" as="geometry">
                        <mxPoint y="230" as="sourcePoint"/>
                        <mxPoint x="-90" y="285.3846153846155" as="targetPoint"/>
                    </mxGeometry>
                </mxCell>
                <mxCell id="116" value="" style="endArrow=blockThin;html=1;fontFamily=Alegreya;fontSource=https%3A%2F%2Ffonts.googleapis.com%2Fcss%3Ffamily%3DAlegreya;endFill=1;" parent="93" source="97" target="100" edge="1">
                    <mxGeometry width="50" height="50" relative="1" as="geometry">
                        <mxPoint x="100" y="240" as="sourcePoint"/>
                        <mxPoint x="10" y="295.3846153846155" as="targetPoint"/>
                    </mxGeometry>
                </mxCell>
                <mxCell id="117" value="" style="endArrow=blockThin;html=1;fontFamily=Alegreya;fontSource=https%3A%2F%2Ffonts.googleapis.com%2Fcss%3Ffamily%3DAlegreya;endFill=1;" parent="93" source="98" target="101" edge="1">
                    <mxGeometry width="50" height="50" relative="1" as="geometry">
                        <mxPoint x="340" y="47.30769230769238" as="sourcePoint"/>
                        <mxPoint x="250" y="102.69230769230785" as="targetPoint"/>
                    </mxGeometry>
                </mxCell>
                <mxCell id="118" value="" style="endArrow=blockThin;html=1;fontFamily=Alegreya;fontSource=https%3A%2F%2Ffonts.googleapis.com%2Fcss%3Ffamily%3DAlegreya;endFill=1;" parent="93" source="98" target="102" edge="1">
                    <mxGeometry width="50" height="50" relative="1" as="geometry">
                        <mxPoint x="350" y="57.30769230769238" as="sourcePoint"/>
                        <mxPoint x="260" y="112.69230769230785" as="targetPoint"/>
                    </mxGeometry>
                </mxCell>
                <mxCell id="119" value="" style="endArrow=blockThin;html=1;fontFamily=Alegreya;fontSource=https%3A%2F%2Ffonts.googleapis.com%2Fcss%3Ffamily%3DAlegreya;endFill=1;" parent="93" source="103" target="105" edge="1">
                    <mxGeometry width="50" height="50" relative="1" as="geometry">
                        <mxPoint x="350" y="230" as="sourcePoint"/>
                        <mxPoint x="260" y="285.3846153846155" as="targetPoint"/>
                    </mxGeometry>
                </mxCell>
                <mxCell id="120" value="" style="endArrow=blockThin;html=1;fontFamily=Alegreya;fontSource=https%3A%2F%2Ffonts.googleapis.com%2Fcss%3Ffamily%3DAlegreya;endFill=1;" parent="93" source="103" target="106" edge="1">
                    <mxGeometry width="50" height="50" relative="1" as="geometry">
                        <mxPoint x="450" y="230" as="sourcePoint"/>
                        <mxPoint x="360" y="285.3846153846155" as="targetPoint"/>
                    </mxGeometry>
                </mxCell>
                <mxCell id="121" value="" style="endArrow=blockThin;html=1;fontFamily=Alegreya;fontSource=https%3A%2F%2Ffonts.googleapis.com%2Fcss%3Ffamily%3DAlegreya;endFill=1;" parent="93" source="104" target="107" edge="1">
                    <mxGeometry width="50" height="50" relative="1" as="geometry">
                        <mxPoint x="530" y="210" as="sourcePoint"/>
                        <mxPoint x="440" y="265.3846153846155" as="targetPoint"/>
                    </mxGeometry>
                </mxCell>
                <mxCell id="122" value="" style="endArrow=blockThin;html=1;fontFamily=Alegreya;fontSource=https%3A%2F%2Ffonts.googleapis.com%2Fcss%3Ffamily%3DAlegreya;endFill=1;" parent="93" source="104" target="108" edge="1">
                    <mxGeometry width="50" height="50" relative="1" as="geometry">
                        <mxPoint x="640" y="210" as="sourcePoint"/>
                        <mxPoint x="550" y="265.3846153846155" as="targetPoint"/>
                    </mxGeometry>
                </mxCell>
                <mxCell id="153" value="&lt;font size=&quot;1&quot; data-font-src=&quot;https://fonts.googleapis.com/css?family=Ubuntu+mono&quot; face=&quot;Ubuntu mono&quot;&gt;&lt;b style=&quot;font-size: 16px;&quot;&gt;inorder&lt;/b&gt;&lt;/font&gt;" style="text;html=1;strokeColor=none;fillColor=none;align=center;verticalAlign=middle;whiteSpace=wrap;rounded=0;fontColor=#e01b24;" parent="1" vertex="1">
                    <mxGeometry x="40" y="29" width="90" height="30" as="geometry"/>
                </mxCell>
            </root>
        </mxGraphModel>
    </diagram>
</mxfile>
